name rise42.5664peak47.7979fall81.9185.mot
datacolumns 19
datarows 18
range 9.84829400000000 9.87664000000000
endheader
time	ground_force1_vx	ground_force1_vy	ground_force1_vz	ground_force1_px	ground_force1_py	ground_force1_pz	ground_force2_vx	ground_force2_vy	ground_force2_vz	ground_force2_px	ground_force2_py	ground_force2_pz	ground_torque1_x	ground_torque1_y	ground_torque1_z	ground_torque2_x	ground_torque2_y	ground_torque2_z	
9.84829400000000	-35.33415800000000	782.96228199999996	49.08883100000000	0.08856100000000	0.00000000000000	0.09927500000000	-1.23366200000000	3.64242400000000	0.63421100000000	0.00000000000000	0.00000000000000	0.00000000000000	0.00000000000000	16.53774200000000	0.00000000000000	0.00000000000000	0.11645300000000	0.00000000000000	
9.84995800000000	-35.74562600000000	782.03058499999997	49.01486400000000	0.08789700000000	0.00000000000000	0.09917800000000	-1.97298700000000	7.11976500000000	1.09648100000000	0.00000000000000	0.00000000000000	0.00000000000000	0.00000000000000	16.49028500000000	0.00000000000000	0.00000000000000	0.21815600000000	0.00000000000000	
9.85164200000000	-36.17293600000000	781.00848299999996	48.92345200000000	0.08723700000000	0.00000000000000	0.09907700000000	-2.80875100000000	11.33442800000000	1.63622600000000	0.00000000000000	0.00000000000000	0.00000000000000	0.00000000000000	16.44339900000000	0.00000000000000	0.00000000000000	0.33979500000000	0.00000000000000	
9.85329800000000	-36.61656500000000	779.89252799999997	48.81394300000000	0.08658100000000	0.00000000000000	0.09897400000000	-3.71539200000000	16.24512800000000	2.24199300000000	0.00000000000000	0.00000000000000	0.00000000000000	0.00000000000000	16.39718800000000	0.00000000000000	0.00000000000000	0.47961300000000	0.00000000000000	
9.85496100000000	-37.07691700000000	778.67924200000004	48.68570800000000	0.08592800000000	0.00000000000000	0.09886900000000	-4.66097700000000	21.77836900000000	2.89808200000000	0.00000000000000	0.00000000000000	0.00000000000000	0.00000000000000	16.35174600000000	0.00000000000000	0.00000000000000	0.63487700000000	0.00000000000000	
9.85663900000000	-37.55432500000000	777.36512100000004	48.53814100000000	0.08527800000000	0.00000000000000	0.09876000000000	-5.60927600000000	27.83398600000000	3.58558000000000	0.29524700000000	0.00000000000000	-0.07344800000000	0.00000000000000	16.30715700000000	0.00000000000000	0.00000000000000	1.44870500000000	0.00000000000000	
9.85830000000000	-38.04904300000000	775.94664299999999	48.37066600000000	0.08463000000000	0.00000000000000	0.09864900000000	-6.52238000000000	34.29357100000000	4.28374700000000	0.30060600000000	0.00000000000000	-0.07393000000000	0.00000000000000	16.26349600000000	0.00000000000000	0.00000000000000	1.78262800000000	0.00000000000000	
9.85996300000000	-38.56124300000000	774.42027199999995	48.18273600000000	0.08398300000000	0.00000000000000	0.09853500000000	-7.36352600000000	41.03063300000000	4.97159100000000	0.30532900000000	0.00000000000000	-0.07436800000000	0.00000000000000	16.22082700000000	0.00000000000000	0.00000000000000	2.12610300000000	0.00000000000000	
9.86163400000000	-39.09101100000000	772.78246600000000	47.97383600000000	0.08333900000000	0.00000000000000	0.09841800000000	-8.09975200000000	47.92107200000000	5.62941100000000	0.30951800000000	0.00000000000000	-0.07476900000000	0.00000000000000	16.17920200000000	0.00000000000000	0.00000000000000	2.47058600000000	0.00000000000000	
9.86329400000000	-39.63834500000000	771.02968299999998	47.74348900000000	0.08269500000000	0.00000000000000	0.09829900000000	-8.70402700000000	54.85254900000000	6.24010400000000	0.31325400000000	0.00000000000000	-0.07514000000000	0.00000000000000	16.13866500000000	0.00000000000000	0.00000000000000	2.80819700000000	0.00000000000000	
9.86496600000000	-40.20315200000000	769.15838599999995	47.49125200000000	0.08205200000000	0.00000000000000	0.09817600000000	-9.15668100000000	61.73177000000000	6.79011300000000	0.31660100000000	0.00000000000000	-0.07548600000000	0.00000000000000	16.09924300000000	0.00000000000000	0.00000000000000	3.13219800000000	0.00000000000000	
9.86662500000000	-40.78524200000000	767.16505500000005	47.21672200000000	0.08140800000000	0.00000000000000	0.09805100000000	-9.44602500000000	68.48916600000000	7.26995400000000	0.31961400000000	0.00000000000000	-0.07581100000000	0.00000000000000	16.06095500000000	0.00000000000000	0.00000000000000	3.43731000000000	0.00000000000000	
9.86829900000000	-41.38432900000000	765.04618800000003	46.91954200000000	0.08076500000000	0.00000000000000	0.09792300000000	-9.56823700000000	75.08089400000000	7.67432600000000	0.32233500000000	0.00000000000000	-0.07611800000000	0.00000000000000	16.02380400000000	0.00000000000000	0.00000000000000	3.71986000000000	0.00000000000000	
9.86996100000000	-42.00002900000000	762.79831300000001	46.59939300000000	0.08012100000000	0.00000000000000	0.09779200000000	-9.52662400000000	81.48839000000000	8.00186400000000	0.32480200000000	0.00000000000000	-0.07641000000000	0.00000000000000	15.98778200000000	0.00000000000000	0.00000000000000	3.97777300000000	0.00000000000000	
9.87162700000000	-42.63185400000000	760.41799600000002	46.25600700000000	0.07947600000000	0.00000000000000	0.09765800000000	-9.33041700000000	87.71592200000001	8.25461200000000	0.32704400000000	0.00000000000000	-0.07668900000000	0.00000000000000	15.95286800000000	0.00000000000000	0.00000000000000	4.21043200000000	0.00000000000000	
9.87329300000000	-43.27921600000000	757.90184399999998	45.88916200000000	0.07882900000000	0.00000000000000	0.09752100000000	-8.99329000000000	93.78668300000000	8.43730700000000	0.32908800000000	0.00000000000000	-0.07695600000000	0.00000000000000	15.91902500000000	0.00000000000000	0.00000000000000	4.41844800000000	0.00000000000000	
9.87496600000000	-43.94142400000000	755.24652100000003	45.49868600000000	0.07818100000000	0.00000000000000	0.09738100000000	-8.53177100000000	99.73801200000000	8.55656800000000	0.33095500000000	0.00000000000000	-0.07721400000000	0.00000000000000	15.88620500000000	0.00000000000000	0.00000000000000	4.60336700000000	0.00000000000000	
9.87664000000000	-44.61768200000000	752.44874600000003	45.08446000000000	0.07753100000000	0.00000000000000	0.09723800000000	-7.96368400000000	105.61628500000000	8.62007300000000	0.33266400000000	0.00000000000000	-0.07746300000000	0.00000000000000	15.85434500000000	0.00000000000000	0.00000000000000	4.76734800000000	0.00000000000000	
